<svg width="1200" height="860" viewBox="0 0 1200 860" fill="none" xmlns="http://www.w3.org/2000/svg">
  <rect width="1200" height="860" rx="40" fill="#09131D"/>
  <rect x="36" y="36" width="1128" height="788" rx="28" fill="url(#paint0_linear)" stroke="rgba(255,255,255,0.08)"/>
  <g opacity="0.24">
    <path d="M102 160H1098" stroke="#7CB8FF" stroke-width="1"/>
    <path d="M102 260H1098" stroke="#7CB8FF" stroke-width="1"/>
    <path d="M102 360H1098" stroke="#7CB8FF" stroke-width="1"/>
    <path d="M102 460H1098" stroke="#7CB8FF" stroke-width="1"/>
    <path d="M102 560H1098" stroke="#7CB8FF" stroke-width="1"/>
    <path d="M102 660H1098" stroke="#7CB8FF" stroke-width="1"/>
    <path d="M180 104V756" stroke="#7CB8FF" stroke-width="1"/>
    <path d="M340 104V756" stroke="#7CB8FF" stroke-width="1"/>
    <path d="M500 104V756" stroke="#7CB8FF" stroke-width="1"/>
    <path d="M660 104V756" stroke="#7CB8FF" stroke-width="1"/>
    <path d="M820 104V756" stroke="#7CB8FF" stroke-width="1"/>
    <path d="M980 104V756" stroke="#7CB8FF" stroke-width="1"/>
  </g>
  <rect x="108" y="112" width="420" height="292" rx="28" fill="url(#paint1_linear)" stroke="rgba(255,255,255,0.08)"/>
  <circle cx="232" cy="236" r="22" fill="#8BD3FF"/>
  <circle cx="362" cy="182" r="16" fill="#56D4C3"/>
  <circle cx="454" cy="310" r="18" fill="#DDA25A"/>
  <path d="M232 236L362 182L454 310" stroke="#6CB7FF" stroke-width="6" stroke-linecap="round"/>
  <path d="M232 236L314 322L454 310" stroke="#56D4C3" stroke-width="4" stroke-linecap="round" opacity="0.85"/>
  <circle cx="314" cy="322" r="12" fill="#C9F1FF"/>
  <rect x="572" y="112" width="492" height="292" rx="28" fill="url(#paint2_linear)" stroke="rgba(255,255,255,0.08)"/>
  <path d="M628 330C684 282 738 302 778 250C816 200 856 176 916 204C964 226 994 286 1020 266" stroke="#8BD3FF" stroke-width="8" stroke-linecap="round"/>
  <path d="M628 286C678 248 718 220 760 230C798 238 840 286 876 284C916 282 962 242 1010 226" stroke="#56D4C3" stroke-width="6" stroke-linecap="round" opacity="0.9"/>
  <circle cx="778" cy="250" r="12" fill="#8BD3FF"/>
  <circle cx="916" cy="204" r="12" fill="#56D4C3"/>
  <circle cx="1010" cy="226" r="12" fill="#DDA25A"/>
  <rect x="108" y="450" width="300" height="252" rx="26" fill="url(#paint3_linear)" stroke="rgba(255,255,255,0.08)"/>
  <rect x="142" y="612" width="42" height="54" rx="12" fill="#8BD3FF"/>
  <rect x="198" y="566" width="42" height="100" rx="12" fill="#6CB7FF"/>
  <rect x="254" y="512" width="42" height="154" rx="12" fill="#56D4C3"/>
  <rect x="310" y="590" width="42" height="76" rx="12" fill="#DDA25A"/>
  <rect x="452" y="450" width="300" height="252" rx="26" fill="url(#paint4_linear)" stroke="rgba(255,255,255,0.08)"/>
  <circle cx="602" cy="576" r="84" stroke="#8BD3FF" stroke-width="3"/>
  <circle cx="602" cy="576" r="54" stroke="#56D4C3" stroke-width="3"/>
  <circle cx="602" cy="576" r="24" fill="#56D4C3" opacity="0.55"/>
  <rect x="796" y="450" width="268" height="252" rx="26" fill="url(#paint5_linear)" stroke="rgba(255,255,255,0.08)"/>
  <rect x="840" y="504" width="52" height="52" rx="16" fill="#8BD3FF" fill-opacity="0.9"/>
  <rect x="910" y="504" width="52" height="52" rx="16" fill="#56D4C3" fill-opacity="0.85"/>
  <rect x="980" y="504" width="52" height="52" rx="16" fill="#DDA25A" fill-opacity="0.85"/>
  <rect x="840" y="574" width="52" height="52" rx="16" fill="#56D4C3" fill-opacity="0.7"/>
  <rect x="910" y="574" width="52" height="52" rx="16" fill="#8BD3FF" fill-opacity="0.7"/>
  <rect x="980" y="574" width="52" height="52" rx="16" fill="#DDA25A" fill-opacity="0.65"/>
  <defs>
    <linearGradient id="paint0_linear" x1="76" y1="84" x2="1110" y2="804" gradientUnits="userSpaceOnUse">
      <stop stop-color="#0D1C2B"/>
      <stop offset="1" stop-color="#0A1520"/>
    </linearGradient>
    <linearGradient id="paint1_linear" x1="108" y1="112" x2="528" y2="404" gradientUnits="userSpaceOnUse">
      <stop stop-color="#132A40"/>
      <stop offset="1" stop-color="#0D1B29"/>
    </linearGradient>
    <linearGradient id="paint2_linear" x1="572" y1="112" x2="1064" y2="404" gradientUnits="userSpaceOnUse">
      <stop stop-color="#11273B"/>
      <stop offset="1" stop-color="#132033"/>
    </linearGradient>
    <linearGradient id="paint3_linear" x1="108" y1="450" x2="408" y2="702" gradientUnits="userSpaceOnUse">
      <stop stop-color="#12253A"/>
      <stop offset="1" stop-color="#0C1723"/>
    </linearGradient>
    <linearGradient id="paint4_linear" x1="452" y1="450" x2="752" y2="702" gradientUnits="userSpaceOnUse">
      <stop stop-color="#0F2335"/>
      <stop offset="1" stop-color="#0C1824"/>
    </linearGradient>
    <linearGradient id="paint5_linear" x1="796" y1="450" x2="1064" y2="702" gradientUnits="userSpaceOnUse">
      <stop stop-color="#101F31"/>
      <stop offset="1" stop-color="#0A141E"/>
    </linearGradient>
  </defs>
</svg>