<svg width="1200" height="860" viewBox="0 0 1200 860" fill="none" xmlns="http://www.w3.org/2000/svg">
  <rect width="1200" height="860" rx="40" fill="#0A121A"/>
  <rect x="36" y="36" width="1128" height="788" rx="28" fill="url(#paint0_linear)" stroke="rgba(255,255,255,0.08)"/>
  <circle cx="958" cy="176" r="112" fill="#2580F6" fill-opacity="0.2"/>
  <circle cx="958" cy="176" r="58" fill="#86D3FF" fill-opacity="0.22"/>
  <path d="M120 656L284 478L438 548L610 354L780 430L946 262L1082 314" stroke="#86D3FF" stroke-width="8" stroke-linecap="round" stroke-linejoin="round"/>
  <path d="M120 712L280 560L436 602L612 466L782 500L934 394L1070 430" stroke="#56D4C3" stroke-width="4" stroke-linecap="round" stroke-linejoin="round" opacity="0.92"/>
  <rect x="140" y="514" width="88" height="164" rx="18" fill="#132739"/>
  <rect x="264" y="438" width="114" height="240" rx="18" fill="#173149"/>
  <rect x="422" y="386" width="132" height="292" rx="20" fill="#1A3752"/>
  <rect x="598" y="300" width="158" height="378" rx="22" fill="#203E59"/>
  <rect x="814" y="246" width="132" height="432" rx="20" fill="#1B3550"/>
  <rect x="990" y="198" width="92" height="480" rx="20" fill="#173149"/>
  <g opacity="0.4">
    <path d="M92 742H1108" stroke="#9BCBFF" stroke-width="1"/>
    <path d="M92 690H1108" stroke="#9BCBFF" stroke-width="1"/>
    <path d="M92 638H1108" stroke="#9BCBFF" stroke-width="1"/>
    <path d="M92 586H1108" stroke="#9BCBFF" stroke-width="1"/>
  </g>
  <rect x="108" y="108" width="360" height="180" rx="28" fill="url(#paint1_linear)" stroke="rgba(255,255,255,0.08)"/>
  <circle cx="186" cy="198" r="12" fill="#86D3FF"/>
  <circle cx="242" cy="198" r="12" fill="#56D4C3"/>
  <circle cx="298" cy="198" r="12" fill="#DDA25A"/>
  <path d="M170 236H412" stroke="#86D3FF" stroke-width="4" stroke-linecap="round"/>
  <path d="M170 256H364" stroke="#56D4C3" stroke-width="4" stroke-linecap="round"/>
  <path d="M170 160H298" stroke="#DDA25A" stroke-width="4" stroke-linecap="round"/>
  <rect x="524" y="108" width="566" height="180" rx="28" fill="url(#paint2_linear)" stroke="rgba(255,255,255,0.08)"/>
  <path d="M570 224C624 174 678 204 720 176C760 148 812 128 876 154C930 176 972 234 1042 206" stroke="#86D3FF" stroke-width="7" stroke-linecap="round"/>
  <path d="M570 184C636 166 672 142 736 152C788 162 828 212 886 212C930 212 974 188 1048 154" stroke="#56D4C3" stroke-width="5" stroke-linecap="round" opacity="0.9"/>
  <circle cx="720" cy="176" r="10" fill="#86D3FF"/>
  <circle cx="876" cy="154" r="10" fill="#56D4C3"/>
  <circle cx="1048" cy="154" r="10" fill="#DDA25A"/>
  <defs>
    <linearGradient id="paint0_linear" x1="64" y1="62" x2="1142" y2="818" gradientUnits="userSpaceOnUse">
      <stop stop-color="#101A25"/>
      <stop offset="1" stop-color="#0A131C"/>
    </linearGradient>
    <linearGradient id="paint1_linear" x1="108" y1="108" x2="468" y2="288" gradientUnits="userSpaceOnUse">
      <stop stop-color="#13283D"/>
      <stop offset="1" stop-color="#101B29"/>
    </linearGradient>
    <linearGradient id="paint2_linear" x1="524" y1="108" x2="1090" y2="288" gradientUnits="userSpaceOnUse">
      <stop stop-color="#11273A"/>
      <stop offset="1" stop-color="#0F1A28"/>
    </linearGradient>
  </defs>
</svg>